<svg width="350" height="296" viewBox="0 0 350 296" xmlns="http://www.w3.org/2000/svg"><g fill="#0F1A23" fill-rule="evenodd"><path d="M198.99 20.965c-.448-1.058-.978-2.034-.53-2.847.938-1.75 1.142-3.335.693-4.515-.815-2.115-.407-4.108.653-5.613.367-.488 1.141-.65 1.672-1.016-.775.122-1.795.284-2.325 1.342-1.305 2.521-1.264 3.579-.815 4.718.734 1.83.204 3.253-.449 4.921-.53 1.464.326 2.318 1.101 3.01M205.514 6.2c3.181-.407 6.199-1.18 9.298-.326 1.63.489 3.955 2.319 4.403 3.864.571 1.953-.081 4.067.041 6.06.082.895.653 1.343 1.142 1.709.408.284.652.732.938 1.098-.204-1.058-1.672-1.912-1.509-3.539.204-1.87.449-3.538.04-5.328-.285-1.342-1.671-2.887-3.465-3.7 1.468.284 3.017 1.341 4.118 2.277-.774-.814-2.691-2.44-4.567-2.929-2.691-.732-5.994-.61-7.543-.244-1.264.244-3.14 1.058-2.896 1.058m-4.077-.122c-2.243-1.505-1.387-3.498.978-4.311 4.771-1.627 9.257-2.034 14.068-.61 4.16 1.22 8.156 5.165 7.993 8.663.285 2.887.04 8.419-.449 8.866-.652.65-.734.976-.815 1.83.407-.488.734-.935 1.467-.976.857-.04 1.51 1.424 1.101 3.905-.203 1.301-1.223 3.945-2.283 2.928-.53 2.359-.816 5.206-1.59 6.874-.571 1.18-1.264 2.318-2.202 3.375.652-.406 1.1-.691 1.753-1.464-.204 2.4 0 5.287.53 8.094.163.935.857 1.667 1.305 2.521-.081 2.075-2.895 4.84-5.382 5.735-.123.082-.286.122-.408.163.856-1.586.938-2.806.49-5.165-.123 3.09-.531 4.555-1.958 6.019-5.709 1.424-11.336-.285-13.416-4.759-.081-3.01-.081-6.466-.53-9.191 1.142 1.18 1.957 2.684 3.425 3.335 1.468.691 2.977.284 4.567.203 1.468-.081 2.855.203 4.16-.447 1.386-.732 2.732-2.237 3.506-3.173-1.182 1.058-2.405 2.115-3.873 2.644-1.305.488-2.773 0-4.078.163-1.55.162-3.466.366-4.485-.53-1.59-1.341-3.181-2.805-4.16-4.636-1.06-1.952-1.223-4.23-1.835-6.385-.489.935-1.508.61-1.835 0-.937-1.627-1.55-2.563-1.712-4.474-.163-1.912.856-2.115 1.876-1.668-1.224-3.294-2.447-7.077-2.325-11.306.082-2.278.693-5.084 2.488-6.304.774-.53 1.182-.489 1.835-.245.57.285 1.182.326 1.794.326"/><path d="M201.07 47.035c.938 1.465 1.957 3.254 3.343 4.27 4.119 2.93 8.523 2.563 11.214 1.79 2.977-.854 6.198-3.416 7.421-7.198.286-.855.653-1.22 1.101-1.14 4.2 1.18 8.482 2.848 12.641 4.922.49.244.816.732 1.223 1.098-1.59.285-2.61 4.27-2.65 7.2-.122 5.937.408 10.777 2.487 15.536-1.386 5.816-4.852 9.436-10.928 11.306 5.546-.528 9.583-4.31 11.458-10.127 1.468 2.807 3.67 4.108 5.668 5.003 1.101 5.897.857 10.208.327 15.17-1.672-.854-2.61-1.708-4.404-3.579-1.794-1.87-3.1-.895-3.18 0-.042.936.366 2.237.57 3.01-1.142.203-2.161.244-3.303.447-1.55.285-1.916.854-2.202 1.505-11.703-2.969-24.099-7.443-36.128-8.948-2.773-.325-5.831-1.22-8.36-3.416-2.446-2.115-4.607-5.979-4.933-9.64.204-4.84 1.794-7.239 2.895-10.167.897-2.237.693-7.24.979-11.144.122-.732.163-1.342 1.304-1.952 3.956-2.115 7.993-3.824 12.233-4.678.49-.081.938.285 1.224.732"/><path d="M239.033 51.55c-1.509.407-3.018 3.132-2.977 6.874 0 4.351.449 9.435 2.57 14.235.978-1.79 2.12-2.807 4.158-2.807-1.508.854-3.017 1.912-3.22 3.091.121.53.896 1.871 1.752 1.912 2.284.081 4.567-.61 6.85-.65 1.55 0 2.937.65 3.915 1.585-1.671-.691-2.813-.976-4.444-.976-1.876 0-3.915 1.14-5.872.976.693.732 1.509 1.424 2.12 2.237 3.1 4.108 5.383 8.541 9.094 12.324 1.427 1.383 3.14 2.48 5.015 2.237 1.672-.244 3.058-.895 4.567-1.627 1.468-.691 1.754-2.4 3.1-3.294-.898 1.301-1.102 3.172-1.877 3.579-2.365 1.26-4.24 1.708-6.646 3.01-3.466 1.911-6.932 4.107-9.705 4.23.326.325.53.772.612 1.26.203 1.139.081 1.83-.327 2.562-.448.814.367 1.383-.57 2.766.081 1.79-1.917 2.644-3.344 3.335 1.63.366 5.464.407 7.707.448 2.976.08 6.035-.285 9.011-1.058 4.526-1.139 9.501-1.749 11.662-4.921 1.55-2.278-.489-4.067-.122-6.06-1.06.894-1.957 1.911-3.67 2.277a7.435 7.435 0 0 0 2.895-3.05c.775-1.505.327-2.684 0-3.701-.897-1.79-2.16-2.929-2.936-4.921-2.283-5.939-6.238-11.185-10.805-15.862-.082.854-.123 1.87-.694 2.359.163-2.075.245-5.695-.856-7.85-3.221-6.223-8.93-11.795-16.963-14.52M185.575 52.607c-.734 2.034 0 6.508-.571 9.517-.653 3.335-1.917 6.142-2.855 9.396-.448 1.586-.53 3.05 0 5.206-2.038-2.522-4.322-4.922-5.341-7.972-1.101-3.417-1.835-7.077.244-10.615 1.998-3.417 5.342-5.328 8.523-5.532M182.435 77.865c.815 3.09 2.487 5.938 4.526 8.215.367 2.278.326 4.556-.081 6.833-.694 1.017-2.57 1.424-3.833.895-1.917-.813-2.936-1.912-4.608-3.213 1.264 1.423 2.242 2.48 3.71 3.66 1.468 1.18 3.344 1.14 4.73.407-.081 1.749-.122 3.538.204 5.328.367 1.952.775 3.905.449 5.694-1.06 5.613-2.814 11.103-3.71 16.757-.408 2.359.244 4.758-.572 6.507-.734 1.587-2.242 3.132-4.118 3.62-.938.244-1.55 1.017-2.324 1.83a35.16 35.16 0 0 1-2.488 2.4c-1.386 1.18-2.446.325-2.039-.732.612-1.627 1.795-1.993 2.447-3.335.612-1.261 0-2.766 1.183-4.23 1.06-1.302 2.813-2.684 3.384-3.905-.53.367-1.1.895-1.713 1.14-.407-3.132-.774-6.427-1.182-9.559-1.183-7.32-1.672-14.56-.856-22.288.122-1.139 1.019-2.521 1.427-3.782.285-.814.408-1.952.448-2.807.123-2.521.204-4.595.49-7.198.244-2.075.611-4.027.244-6.427 1.224 1.627 2.65 2.847 4.282 4.19"/><path d="M182.516 131.226c-.978.895-2.854 1.22-4.24 1.505-1.183 1.464-1.876 2.847-2.936 3.904-1.02 1.017-1.631 1.79-2.65 1.505-.286 1.342-.816 3.376-.816 5.003 0 2.643.122 4.026.489 6.589.163.528 1.672.04 1.672-1.22-.04-1.953.122-3.173.04-5.166.53-1.464.898-3.579 1.183-5.247.204.61.408 1.099.326 1.75-.163 1.22-.652 2.765-.815 4.27.04 1.627-.122 2.644-.04 4.026.53.082 1.345-.488 1.549-1.505.611-.04.897-.813.897-1.952.815-.284.448-2.318 1.182-3.498-1.264-.69-1.753-2.44-2.365-4.067.897 1.302 1.468 3.05 3.058 3.58 1.224-1.14 2.488-3.214 2.896-4.515.57-1.668.407-3.091.57-4.962M244.66 96.452c-.775-.692-2.12-1.058-3.058-1.14-2.569 0-5.179-.284-7.095.123-1.957.406-1.509 2.074-.245 2.074 1.264 0 3.955.244 6.28.366 1.02.04 1.427.447 2.283 1.18.897-.122 2.284-.041 3.058.203-3.343.447-6.89-.163-10.52.285-.979.162-.815 1.748-.04 1.952 2.731.732 5.219.61 8.032.976.775.122.816 0 .816.57-2.691.243-5.464-.082-8.319-.123-1.59 0-.897 1.587.204 1.871 2.692.732 5.342.651 7.544.692-.163.447-.204.894-.816 1.18-1.794.69-3.914.243-5.627.447-.611.04-.652 1.382.326 1.708 2.04.61 4.282.325 6.32-.163 1.265-.325 2.162-.976 2.651-1.83.286-.57.041-1.424-.204-1.912.694-.65.734-1.79.367-2.928.327-.61.571-1.22.245-2.36-.326-1.138-1.182-2.236-2.202-3.171M243.03 94.987c-1.469-1.098-2.692-2.521-3.711-3.498-.98-.935-1.876-.203-1.754.936.082 1.017.693 1.83 1.55 2.603 1.182-.122 2.405-.203 3.914-.04"/><path d="M231.897 96.248c-.04.732.367 1.708 1.468 1.83 2.977.367 5.994.041 9.012-.08.163.325.326.69.448 1.016-2.813-.163-5.382-.04-8.074.122-1.672.203-1.672 2.44.571 3.172-1.794.488-1.509 2.197.245 2.766 2.324.732 6.483.57 8.278.366-.408.813-2.04 1.058-2.732 1.058-1.713.08-3.059-.122-4.567.162-1.142.244-1.02 2.156.367 2.563 2.12.65 4.444.61 6.075.244-.326 2.521-1.223 5.572-.978 8.093.081 1.058 1.223 1.302 1.468 2.319.367 1.708-.53 1.911-1.346 1.952-3.1-1.586-4.975-3.132-7.788-4.596-2.855-1.505-6.932-3.864-9.665-4.311-.978-.163.164 1.952 1.265 2.359 2.65.935 5.504 1.18 8.033 2.4 2.854 1.382 4.893 4.066 7.91 5.327.816.082 1.183 3.091.367 4.19-2.406 1.179-5.423.813-8.033-.123-1.59-.569-3.996-1.83-5.708-1.87-1.224 0-.857.976.856 1.464 1.998.57 3.914 1.464 5.994 1.83 2.08.325 4.526.61 6.361.04.122 1.587 2.488 2.278.775 4.963-1.183 1.79-4.812 3.09-8.767 2.44-4.526-.773-9.093-3.864-12.967-4.718-3.915-.854-6.728-.203-10.072-.325 3.425.61 7.87 1.18 10.235 1.79 2.324.61 3.018 1.382 3.71 1.951-2.813-.162-3.465 1.14-9.256.977-6.32-.204-11.947-4.393-18.145-5.857-3.507-.814-7.34-.285-10.724-.936-1.06-.203-.571-2.887-.245-4.148.611-2.4 2.528-4.27 3.017-6.711.653-3.294.53-6.67.816-10.046 2.61 2.034 4.893 4.433 7.788 6.02 2.936 1.586 6.157 2.562 9.42 3.375 1.223.326-.53-1.911-2.447-2.44-2.487-.65-5.342-.895-7.544-2.237-3.14-1.912-4.811-3.742-7.625-6.141-1.182-3.742-2.324-8.379-1.876-11.673.367-2.563.449-5.491.327-8.541 1.55.976 3.547 1.342 5.668 1.464 3.547.163 6.36-.57 9.419-1.18 7.91 1.546 15.78 3.05 23.691 4.556 1.672 1.708 3.303 3.416 4.975 5.124"/><path d="M186.186 129.884c1.998 1.057 4.445.935 6.892.895 2.936 1.667 6.402 3.457 8.196 5.734.122-.773-.49-1.545-1.06-2.115-1.387-1.383-3.344-2.4-4.894-3.579 2.814-.163 5.831.814 8.36 2.115 3.833 1.993 6.687 2.888 10.56 3.213 3.508.366 7.177-.61 9.991-1.749 2.732 1.22 8.44 2.034 10.48 1.18 2.08-.285 4.526-.936 6.605-1.22.857 1.586-.734 4.351-.122 6.385 1.183 3.823.979 9.72.53 11.022-1.182-.488-2.08-1.667-2.773-2.318-.326.935 1.06 2.562 2.896 4.352.448 1.627-.449 4.921-.123 7.28.163 1.017-.734 1.464-1.468 1.83.653 4.433.612 8.5.286 12.405-.571.244-1.264-1.586-1.468-2.359-.734 3.01-2.04 5.613-4.363 6.914-6.32 3.498-13.212 2.929-17.86 1.83-1.469-.366-2.57-1.464-3.834-2.196-.163-5.978-1.794-12.405-.734-17.448-.04-1.586-.937-1.952-1.304-2.806-.898-2.197-1.183-4.352-1.387-6.304-.285-2.44-1.264-2.522-1.345-1.627.326 3.335 1.427 6.507 2.732 9.639-.082 1.342-.694 2.562-.938 2.603-.979-2.237-1.142-4.84-2.773-7.321-1.672-2.522-3.71-3.58-5.016-3.457-.407 0-1.59.529 1.101 1.993 1.101.61 2.65.57 3.752 2.847 1.1 2.277 2.161 5.572 2.976 8.256.449 1.424-.04 1.79-.163 2.36-3.058-.489-4.689-4.556-9.052-6.874-7.788-4.149-14.231-1.383-17.942.691-.978-.122-1.345-2.684-.938-3.66 1.101-2.197 2.855-3.702 4.73-5.084-1.55.325-3.099 1.382-4.648 2.806-1.998-2.522.163-8.338.285-12.242 1.02-1.912 2.732-3.091 4.363-4.352-1.508.285-2.854.976-3.996 2.278-.897-.61.449-5.857 2.57-8.664-.164-1.057 0-2.155.896-3.253"/><path d="M200.132 191.054c1.386 2.97-.326 5.735-2.732 8.42 1.182-1.14 2.691-1.994 3.507-3.377.611-1.057.897-2.643.652-3.7-.285-1.262-.938-1.506-1.427-1.343m-.57 58.649c-.857-4.433-2.366-8.623-3.222-13.015-1.346-6.792-2.04-12.771-2.528-19.604-.123 6.263.652 12.893 1.671 19.278.938 5.572 2.814 10.982 4.2 16.473.245-.489.082-1.953-.122-3.132m-16.596-86.59c3.262-2.075 8.36-3.783 13.579-2.725 3.833.772 7.706 2.237 9.337 4.31 1.183 1.465 1.876 2.4 3.711 3.092-.938 7.036-3.425 13.015-4.077 21.597-.123 1.22-.449 2.48-.327 3.7.408 3.54-.163 6.02-1.141 8.38-1.06 1.463-2.814 2.52-3.263 4.351.98-1.383 2.447-1.79 3.63-3.01-.612 3.376 1.957 8.989 1.223 17.692-.816 9.762-2.61 21.516-2.855 31.318-.122 4.474 1.51 9.15 2.08 13.584.286 2.034-.326 3.742.163 6.345-2.446-2.237-3.547-5.369-5.709-5.165-1.427.162-2.69 1.464-3.914 2.48-.775.61-1.346 1.261-2.08 1.424.123-3.62.734-7.28.326-10.86-1.508-14.6-9.133-25.541-7.462-44.169.367-4.026 2.04-8.5 2.814-11.795.652.732 1.427 1.261 2.161 1.668-1.753-2.562-2.936-4.677-3.099-8.5-.081-1.953-1.223-7.159.449-8.704.652.65 1.671 1.505 2.65 1.952-.856-2.237-3.914-3.905-4.73-6.67-1.876-6.467-3.466-12.852-3.466-20.295M213.67 182.066c3.14 1.464 6.116 1.545 9.42 1.545 6.931.081 11.784-3.457 15.739-7.606-1.183 7.362-2.487 14.764-5.016 21.435-1.223 3.294-1.345 7.158-3.547 9.923-1.509 1.912-3.588.895-4.322-.691.163 1.912 2.406 3.701 4.73 1.505 1.753-1.708 2.487-5.287 3.425-8.42.856 1.465 1.957 3.336 1.223 7.77-.408 2.317-1.264 4.514-2.202 6.67-.897 2.074-2.895 4.514-4.485 4.961-1.876.529-3.14-.65-4.282-2.033 1.183-.041 2.284-.814 3.222-1.627 2.12-1.058 3.18-2.847 3.588-4.718-.979 1.83-2.202 3.132-3.874 3.66-1.142 1.464-2.854 1.953-4.608 2.075-1.55.08-3.833-.204-4.648-.977-.653-.61-1.142-1.545-1.223-2.237.856.082 1.63.123 2.446-.08 1.835-.448 2.57-1.302 2.691-2.441-.734 1.464-2.365 1.911-4.036 1.79-2.04-.204-3.874-1.871-4.037-4.881-.082-1.342-.612-2.603-.857-4.027-.693-3.864-.448-8.46 1.02-14.072-.449-2.847-.449-5.247-.367-7.524"/><path d="M223.253 217.735c1.06 1.423 2.201 1.952 3.751 2.277-1.264.122-2.569.57-2.61 1.302-.122 1.423-.448 2.033-.938 3.01.326-.082.694-.082.938-.285.653-.447.327-1.586.653-2.562.285-.855 2.365-.977 3.751-.692.856.163 1.672.854 2.284 1.586l.04-.04c-.693-1.22-1.508-2.278-2.65-2.319 1.876-.528 3.18-2.196 4.363-3.7 0-.489-.04-1.018-.081-1.546.326-1.098.693-2.237 1.019-3.335.367.244 1.142 1.18 1.142 1.952-.123 2.928-.816 5.694-1.468 8.541-.734 3.132.326 7.28-.408 10.534-1.02 4.433-2.528 9.924-5.016 12.446-1.304 1.382-6.524 1.179-7.502 0-1.55-1.75-2.285-5.857-3.263-8.826-1.02-3.091-.204-5.776 1.468-8.053 2.161-3.01 2.813-6.467 2.813-10.128.572.082 1.265.122 1.714-.162M209.266 281.752c-1.753-.57-3.425-1.26-5.22-.854-2.242.529-3.914 2.44-5.871 3.66 2.202-1.017 3.873-2.806 6.32-3.213 1.59-.244 4.322.732 5.056 1.342.408-.162-.04-.854-.285-.935m-14.353-7.89c.897.854 1.712 2.196 2.487 3.538.122-.57-.04-1.22-.326-1.749-.49-1.098-1.305-2.033-1.958-3.01-.407-1.626.041-2.48 1.02-3.01.979-.528 1.835-1.91 2.773-2.074.978-.162 2.08.773 2.813 1.383 1.468 1.342 2.243 3.091 3.507 4.637 1.06 2.928 3.18 6.182 4.975 7.89 1.794 1.708 2.773 2.4 3.67 4.474.53.895.163 2.806-.123 3.62-4.689 2.562-10.153 4.23-15.74 5.816-.326.081-.733.122-1.141.163.693-.53 1.223-1.14 1.835-2.807.693-1.749 1.142-3.253 2.528-4.596 1.142-1.138 3.058-1.87 4.648-2.4-1.753.163-3.873.692-5.219 1.872-1.672 1.464-2.12 3.497-3.058 5.49-.653 1.342-1.55 1.912-2.488 2.4-.652-.122-1.141-.325-1.264-.65-.448-1.384-1.386-3.377-1.345-5.166.04-3.295 1.386-6.508 1.55-9.802.122-2.237-.164-4.108-.409-6.345 0-.61.53-.65 1.265.326M308.924 92.466c-1.55.04-3.344.813-4.2 2.318-1.02 1.83-1.06 4.19-1.06 6.223.448-2.156.448-4.19 1.55-6.101.774-1.302 2.038-2.034 3.71-2.44m5.586.406c4.567-1.545 5.668.529 7.707-1.18.123 2.116 1.224 4.312 1.876 5.207-.937-2.278-1.427-5.288-1.264-7.768-.653 1.545-1.467 2.928-3.262 2.765-2.202-.325-3.385-.04-5.057.976m-13.007 9.64c-.204-3.66.244-6.67.856-9.558-.449.366-.897 1.18-1.386 1.749.326-2.237 1.182-4.068 2.446-5.898 4.241-5.979 12.967-6.67 18.635-3.904 1.794.854 5.056 4.148 5.994 7.524.938 3.498-.367 7.646-.774 11.225.693-.528 1.671.407 1.1 2.197a51.082 51.082 0 0 1-1.671 4.473c-.408 1.017-1.55.814-1.55.489-.04-.936.204-2.44-.081-3.091-.04 4.189-2.243 8.744-4.975 11.876-1.183 1.342-2.528 2.033-3.833 2.684a27.819 27.819 0 0 0-1.754-.447c-4.607 1.057-7.747-1.14-9.582-4.27-1.427-2.482-1.713-4.312-2.487-7.16-.122.733-.898.408-1.305-.365-1.509-2.685-1.631-4.555-1.141-6.589.203-.976.937-1.18 1.508-.935"/><path d="M310.8 84.128c.53-.61 1.02-1.26 1.55-1.87-.367-.611.122-1.018.57-1.953 1.468-2.97 5.546-3.132 8.278-1.505 5.016 3.01 7.095 4.311 10.113 9.924.938 1.749 2.61 2.766 4.24 3.579-3.017-.366-3.547-.813-5.871-2.806.856 1.708 2.039 3.213 3.955 4.189a5.287 5.287 0 0 1-2.773-1.058c.163 1.424.286 3.132 1.754 4.149 1.998 1.342 3.914 0 5.627.529 1.345.406 2.446 1.708 2.65 3.01-2.936-3.173-5.3 1.748-8.89.894-1.182-.285-2.853-.65-3.22-1.993 1.264-4.311-.082-10.574-5.098-14.316-1.834-1.383-3.262-1.424-4.077-1.668-2.243-.447-2.528-1.301-1.02-1.911-1.264-.976-2.936-1.017-4.281-.041-.408.854-.816 1.708-1.183 2.562-.774.082-1.55.204-2.324.285M302.033 114.713c3.588 7.24 7.136 8.704 12.722 7.077.979-.122 1.713-.285 2.691-.366.612-.163 1.387-1.22 1.998-1.383 0 1.058.98 3.213 1.958 5.084.652 1.302.49 2.685.775 3.864-.408.773-.571 2.074-.49 2.847.367 2.766.734 4.84 1.672 7.24.408 1.098 1.223 1.911 1.917 2.359 1.712 1.138 2.935 3.579 4.159 6.06-.612 5.328-2.895 12.364-1.835 16.024.285.976.938 1.79 1.06 2.766.082.488-.408.773-.897.976-1.631-1.26-3.833-2.033-5.097-5.41-.449-1.179-1.02-2.318-1.794-3.334.693 3.294 1.998 6.67 4.77 9.639 1.836 2.033 3.303 4.392 4.975 6.548.082 1.668.163 3.335.082 5.003-3.955 3.213-8.4 6.466-14.476 7.93-6.035 1.465-8.318-1.097-11.866-2.643-2.936-1.301-6.565-1.383-9.582-2.725-1.59-1.342-2.896-2.928-4.445-4.27.775-1.18 1.631-1.953 1.998-3.295.285-1.139-.04-2.237.204-3.376.163-.65.57-1.301 1.59-1.545 1.957 2.521 3.466 5.41 6.606 7.036.856.447 1.794.529 2.65.854-4.403-2.4-6.728-5.613-8.97-8.907.081-2.44-.286-4.19-1.142-6.263-.49-1.22-.122-2.44.163-3.539-.816-5.125-1.468-10.819-1.631-16.228-.082-2.44.979-4.8.897-7.199-.082-3.579-1.917-5.775-4.078-7.117 1.142 1.423 2.447 3.253 2.814 6.182-1.509-.326-3.344-.651-4.975-1.79-2.12-3.864-3.221-9.517-.285-13.38 2.691-.489 4.24-2.36 6.565-3.051 3.017-.854 6.116-.936 9.297-1.668"/><path d="M321.443 120.448c-.49-.082-.897.895-.326 1.83.367 1.058.815 1.871 1.304 2.684a47.617 47.617 0 0 0 1.142 3.417c.163.366.163.732.04 1.017-.325.732-.325 1.464-.162 2.237.244 1.83.49 3.05.693 4.88.204 1.75 1.06 2.562 1.998 3.295.612.488 1.264.772 1.59 1.342 3.63 5.897 5.913 13.177 10.643 18.22 2.936 3.092 5.79 1.79 6.932 2.197 2.488.895 3.507-.122 4.037-1.424.979-2.318.449-3.741-.979-7.93-.611-1.79-2.936-3.539-4.689-4.678-4.445-3.254-8.36-6.1-12.518-10.33-.612-.651-1.183-1.709-1.305-2.278-.49-2.115-1.06-3.335-1.346-5.613-.081-.57-.285-1.505-.652-1.87-.408-1.587-1.427-3.417-2.284-5.329-.57-1.22-1.753-2.521-2.691-3.741-.367 0-.734.65-.57 1.22a8.08 8.08 0 0 0 1.508 2.847 48.797 48.797 0 0 1 2.283 5.246c-.938-1.423-1.63-3.172-2.61-4.555-.693-.895-1.304-1.83-2.038-2.684"/><path d="M323.767 117.6c2.976 1.465 6.442 3.783 9.378 5.817 1.835 1.26 3.508 3.254 4.935 5.125 2.201 2.887 3.302 5.572 4.974 8.46-2.08-1.22-5.015-.245-6.443 1.3 1.917-.935 3.956-1.545 5.954-.528.693 1.546 1.63 3.498 2.283 5.084.775 1.87 1.305 3.742 1.835 5.653-3.343-2.765-6.81-5.165-10.235-7.85-1.508-1.138-2.772-2.602-4.2-3.904-.367-.325-.856-.854-1.06-1.505-.734-2.318-1.06-4.758-1.753-7.117-.123-.529-.53-1.017-.693-1.383-1.59-3.335-3.385-6.874-4.975-9.151M283.928 120.854c-1.142 4.596-1.223 8.42 1.998 11.755-.53.284-1.386.488-1.957.488-1.672 0-4.2-.936-4.893-2.807-.367-1.057-.775-1.18-1.305-1.545.611.57.652 1.098.734 1.87.163 1.628 3.058 3.336 4.73 3.254-.734 2.807-1.754 5.41-2.895 7.972-2.161 4.84-4.853 9.03-6.892 14.235-.489 1.261-1.141 2.481-1.223 4.19-.04.731.734 1.3.897 2.033.367 1.383.49 2.847.775 4.27.285.773.652 1.383.979 2.156-.041.732-1.183.65-1.835 0-1.02-1.057-2.243-2.44-3.059-3.66.367 2.115-.856 4.026-.774 5.084.04 1.464.163 2.48.204 3.985.04 1.587-.694 2.685-1.06 2.075-.327-1.627-.653-2.807-.938-4.8-.041-1.057-.204-2.847-.245-3.904-.286-.691-.571-1.342-.693-2.074-.123-.488 0-1.017.081-1.505.571-2.36 1.55-4.596 1.917-7.036 1.141-7.647 2.202-14.113 3.547-21.394.163-1.017 1.02-3.05 1.346-4.108.897-2.725 1.305-3.497 3.67-5.897 2.202-2.196 4.526-3.335 6.891-4.637M289.678 179.95c-1.265 2.644-2.284 6.142-2.202 9.314.244 7.565 3.017 13.137 5.137 18.913.082-3.945.367-9.192 5.872-12.73 3.262-2.075 7.462-3.05 11.255-.61 2.487 1.545 4.607 4.27 6.972 5.694-1.345-2.319-1.916-4.637-2.283-6.915 1.142 2.725 2.202 5.735 4.16 7.81 2.364 2.52 5.749 4.066 8.155 4.392-.653.163-1.265.203-1.917.081-2.814-.529-6.116-2.359-8.318-4.352 1.06 3.01 2.16 7.159 2.283 9.64.082 1.911.082 3.782.163 5.694 4.16 4.27 9.297 5.287 13.212 1.545.652-4.555 1.345-9.11 1.998-13.666l.367-5.246c-.163-.773-.367-1.586-.53-2.4-2.08-1.586-3.996-3.864-5.79-6.467 1.834 1.871 3.71 3.498 5.627 4.556-.041-3.05-.163-5.817-.694-8.989-.326-1.749-1.304-3.823-2.365-4.921a19.918 19.918 0 0 1-4.689 3.294c-4.485 2.237-8.033 2.318-11.703 3.213-2.12.529-4.893.448-6.769-.284-6.524-2.644-8.604-1.627-12.926-3.498-1.998-.895-3.344-2.725-5.015-4.067"/><path d="M294.57 208.746c-.244-3.782.409-6.589 2.978-10.534 2.038-3.131 6.401-4.636 10.601-4.392 1.387.895 2.447 1.423 3.874 2.318 1.59 2.806 2.732 5.247 3.956 8.175.448 1.424.978 3.172.774 4.19.979 2.52 1.06 5.409.816 7.808-.367 3.417-.816 5.816-1.794 8.704-.286.773-.816 2.4-.734 3.213.774 6.71-1.305 14.601-2.57 21.8-.325 1.83-.652 4.19-.937 6.02-2.61-.61-4.812-.489-7.014.488-.856-7.81-3.466-14.724-3.873-22.655-.245-5.368 1.345-7.361 1.957-12.73.244-1.87-.082-7.605-1.06-9.598.57 2.115 1.1 7.402.326 9.435-1.305-3.416-5.464-7.402-7.3-12.242M318.63 218.71c5.626 4.271 9.46 3.295 13.13 1.831.08 2.034.203 4.067.162 6.142 0 3.579-1.02 5.287-.815 7.971.448-1.139.652-2.237 1.02-2.562.652 3.538 2.12 7.32 1.875 10.9-.449 6.71-2.691 13.178-3.588 19.848-.327 2.643-.408 6.71.407 8.704-2.242-.041-4.77-.123-5.26 1.748-.938-1.545-1.55-3.538-1.876-5.49.327-1.464.775-3.091.653-4.556-.49-5.49-2.57-10.534-3.385-16.106-.407-2.562-.326-5.002-.326-7.605 1.305 1.098 2.814 1.545 4.322 1.749-1.794-.895-3.384-1.708-5.137-3.945-.979-1.261-2.12-3.458-1.713-7.81.082-1.098-.612-2.236-.693-4.067a65.23 65.23 0 0 0 1.223-6.751M269.697 171.369c.449 1.017.938 2.074 1.305 3.091.53.081.734-.732.775-1.302 0-.894-.694-1.952-.734-2.765.53.65.897 1.017 1.468 1.667.367.407 1.427.488 2.16.651.572-.285-.285-1.098-.978-1.545-1.06-.814-1.63-1.75-2.406-2.766-.326-.407-.57-.895-.815-1.383-.04 1.708-.897 2.481-.775 4.352"/><path d="M299.586 265.93c2.488-1.748 5.913-1.504 8.604-.284.082-.447.204-.854.856-1.87-.407.202-.978.69-1.182 1.138-1.631-.488-3.67-1.058-5.627-.57-1.264.326-1.876.733-2.65 1.587m4.81-6.264c-.203-.61-.407-1.301-.284-1.87.244-1.22 7.095-1.75 7.87-.489.203.976.04 2.075-.694 2.766.571-.04 1.142-.122 1.387-1.18.203-.976-.082-2.074-.327-3.09.123-1.343 1.06-1.22 1.387-.651 1.264 2.196 2.039 5.531 1.55 7.727-.082.854.08 1.668 0 2.563-.286.61-.939 1.26-2.529 2.318-.244-1.26.204-2.522.856-3.742-1.264 1.017-1.63 2.806-1.794 4.759 0 1.098-.448 4.23-3.384 4.84-2.447.528-4.975.406-7.38-.204-1.183-.284-2.121-1.057-2.814-2.033 0-.692.04-1.098.04-1.83-.285-1.546.286-4.149 2.365-5.654 1.387-1.098 2.733-2.359 3.752-4.23M323.318 285.9c.53 1.953 1.101 3.986 3.1 5.939.978-.407 2.038-.488 3.058-.57-.612-.203-1.754-.244-2.61-.162-1.387-.489-2.691-3.214-3.548-5.206m-.04-19.157c-.286.57-.49 1.139-.49 1.708a30.8 30.8 0 0 0 2.61 6.833c.448-1.18.775-2.318 1.998-2.725 1.386-.447 2.814-.447 4.281-.325.775.081 1.183.529 1.183.895-.082 1.301-.693 2.196-1.02 3.497.204 1.627.653 3.213.694 4.84 0 3.01-.123 5.857-.775 8.785-.897 4.068-3.507 4.718-5.872 2.847-1.55-1.18-2.976-3.904-3.343-5.816-.857-4.84 1.182-5.572-.204-9.395-.694-1.952-1.346-3.823-1.468-6.955.04-1.26.774-3.497 2.405-4.189M37.27 109.71c1.468-.976 4.159-2.196 5.75-1.138 1.63 1.098 1.63 3.579 1.426 5.653-.203-2.766-.611-4.474-1.794-5.084-1.59-.813-3.221-.081-5.382.57m-13.212 7.158c-.448-2.156-.408-4.108.122-6.264.408-1.626 1.468-3.253 2.325-3.823-.693.936-1.183 1.83-.245 2.034 1.713-.163 3.466 1.79 7.421.732-1.957 1.098-4.159.935-6.035.244-.774-.285-1.998-.325-2.405.163-.734.935-1.387 3.66-1.183 6.914m12.152-16.39c-1.02-1.994-3.222-2.563-4.567-1.79-2.732 1.626-5.057 3.741-6.892 3.09-.489.895.286 1.058 1.631 1.912-1.835-.122-3.67 1.058-4.893 4.352-1.63 4.474-.448 8.012 1.06 11.592-1.223-1.017-1.998-.855-2.242-.204-.775 1.912.163 3.945 1.223 5.898.652 1.22 1.794 1.586 2.243.976-.245-.854-.449-1.79-.408-2.807.897 3.091 1.55 4.962 2.936 7.931 1.02 2.197 3.67 5.003 8.93 4.678 4.037-.244 6.81-2.807 7.951-5.37.734-1.667.938-3.538 1.387-5.327.326.488 1.02.854 1.509.244a10.175 10.175 0 0 0 2.242-6.182c0-1.586-1.427-2.115-2.406-.692-.448.692-1.019 1.424-1.427 2.197.163-.895.49-1.627.857-2.44.326-.773.978-1.872 1.875-1.83.653-2.685 1.305-9.64-.693-12.406-2.732-3.7-7.013-5.775-10.48-5.612.286.528.327 1.301.164 1.79"/><path d="M29.196 135.7c1.387.895 3.058 1.22 4.69 1.301 4.363.204 7.42-2.277 8.93-5.002.081 1.138.489 2.359.693 3.09-1.101 4.15-3.874 6.467-9.134 6.874.244.326 1.753 1.261 3.221 1.912-2.487 1.057-10.113-.488-10.969-5.166.326-1.626.49-3.09.449-4.392 1.345 1.545 2.732 3.782 4.648 4.311-1.386-.976-2.16-1.952-2.528-2.928"/><path d="M26.22 135.293c-.205 1.545-.245 2.318-.45 3.823.816 4.27 5.18 5.938 9.95 5.694 2.202-.081 4.037-.691 5.79-1.423-1.834.08-3.465-.53-5.056-1.14 5.138-.935 7.014-3.944 7.87-7.198-.408-.488-.611-1.058-.734-1.708 3.589.732 7.462.691 10.806 2.196 1.876.854 3.262 2.725 4.24 4.596 1.346 2.644 1.143 10.127 1.917 15.211.163.814 1.142 1.546 1.101 1.098-.367-3.7-1.305-7.361-1.427-10.981 1.06 3.01 2.08 6.223 4.119 9.151 1.468 2.115 3.262 3.823 4.363 5.816.489.854.734 1.83 1.1 2.766-1.427-.732-2.813-.244-4.28.61-.816.529-1.714 1.26-2.651 1.342-2.61-.407-4.445-1.708-5.954-3.376a66.04 66.04 0 0 1-2.65-3.254c-.897-1.179-5.546-1.708-8.278-1.708-.979-.04-1.59.204-1.835.854-.652 1.627-1.1 2.847-1.427 4.556-.204.935.693 1.627 2.202 2.074-.122 1.017.122 1.911.979 2.196-.082 1.261.611 1.994 1.957 2.156.815 1.383 2.691 2.725 4.444 2.684-1.019 6.386-.734 12.039-.244 18.465.04.773-.49 1.383-1.957 1.464.081 1.383 2.69.814 3.099 1.668.897 1.749-1.795 4.311-4.404 5.328-2.406.895-6.565.854-6.973 1.586-.53.935.693 2.074 2.487 1.383 2.324-.895 4.323-2.766 7.055-2.929.53.936.937 2.156-.204 3.05-1.958 1.587-4.363 2.197-6.85 2.767-4.976 1.22-9.42-2.603-13.09-6.752-1.794-2.034-3.303-4.759-6.076-6.06-2.691-1.26-5.178.325-7.544.488-1.794.081-1.712-1.057-.734-2.196 1.305-1.424.653-3.091.245-4.84-.326-1.383.204-2.685 1.06-2.807 1.713.814 2.732 2.563 4.445 3.417.734.366 1.631.122 2.324-.163-1.182-.04-2.16-.65-3.017-1.423-1.794-1.627-2.773-3.05-4.486-3.783-1.019-1.464-1.59-3.294-.693-4.8.979-2.643 1.835-5.49 2.12-9.476.204-2.4.368-4.84.53-7.28.775-1.87 1.428-3.823 3.426-5.247-.326-.61-1.305-.244-1.835.326-.979 1.057-1.713 2.847-2.202 4.474-.856 2.806-1.631 5.612-2.65 8.337-1.02 2.807-2.936 3.01-4.853 2.034-3.099-1.627-5.3-3.945-6.565-6.263-.53-1.017-.979-2.034-.49-2.929.368-.691 1.06-1.139 1.713-1.627 1.631-1.22 3.466-1.993 5.342-2.196-1.427-.203-3.017.203-4.648 1.098 1.55-3.538 2.568-7.077 3.466-10.574.57-2.359 1.753-4.718 4.281-5.898 2.324-1.098 5.016-1.301 7.3-2.44 1.63-.814 2.894-2.562 3.832-3.783.245.488.571 1.18.693 1.546"/><path d="M17.167 192.803c2.161.04 4.649-1.424 6.647-.854 2.324.65 3.792 2.277 5.586 4.27 2.283 2.522 4.567 3.091 6.85 4.637.245 1.464 2.04 3.213 4.69 3.823 3.833.895 7.421-.407 10.316-1.87.612 6.181.694 12.323.082 18.505-.04.813-.938 1.423-.938 2.237-.082 4.596-.122 7.89-1.183 12.73-.285 1.423-.937 2.318-2.12 2.847-2.65 1.22-6.035 1.18-10.928-1.383-1.223-.65-1.957-1.87-2.406-2.806.204-1.83.449-3.62 1.223-5.45a17.484 17.484 0 0 1 1.958 4.84c.163-.61.448-1.18.448-1.83.041-1.993-.856-4.027-1.305-6.02.367-2.074.408-4.474.408-6.67 1.754 2.074 3.14 4.514 4.119 7.402.203-.203.203-1.342.122-1.87-.653-3.499-4.69-7.484-4.853-8.583-.285-1.952-.407-3.904-.163-5.897.245-1.627.163-3.335.979-4.8-1.794 3.417-3.507 6.183-6.443 8.298 1.387-.326 2.61-.854 3.67-1.83.204 2.725.857 5.409 1.224 8.175.244 1.993-.204 3.823-.612 5.45-.734-2.034-2.691-4.352-5.342-5.125-4.363-1.383-8.604 0-12.56.895-.855.162-.733-1.424-.162-1.952 1.223-1.22 2.243-1.587 4.077-2.278.857-.366-.244-1.22-1.427-.936-.938.245-1.753 1.343-2.61 1.79-.774-.813-.407-2.644-.489-4.026-.204-3.092-1.06-6.06-1.386-9.11-.245-2.482.081-4.882.775-7.118 1.06-.733 2.16-1.424 3.629-1.668.367-.447-.367-.895-.734-.895-.938.04-1.631.936-2.61 1.058-.53-1.953.449-3.905 1.468-3.986"/><path d="M32.54 225.096c-3.956-3.457-9.257-3.864-15.536-2.237-.408 2.685.53 5.49.897 6.467.816 2.237 2.447 2.603 3.384 3.457 1.835 1.668 5.913 1.749 7.789.163 2.65-2.196 3.099-5.043 3.466-7.85M33.64 237.99c1.591 1.789 4.241 3.131 7.381 3.538 1.998.244 4.037.203 5.954-.448-.408 2.115-1.346 3.66-2.447 5.084a7.617 7.617 0 0 0-1.182 2.563c-.98 4.636-2.65 8.907-4.73 13.503-1.468 3.294-2.61 6.426-3.997 9.476-1.712 2.481-6.075 1.546-6.442-3.01 1.223-1.667 2.569-6.263 2.65-8.785.286-6.63.286-11.876 2.57-16.146 1.018 1.18 1.793 2.4 2.405 3.62-.245-1.261-.816-2.685-1.55-4.352-.774-1.83-.693-3.376-.611-5.044"/><path d="M16.107 226.927c.285 2.155 1.55 4.473 2.732 4.84 1.55 1.952 3.751 3.538 6.076 3.782a414.775 414.775 0 0 1-2.162 5.897c-.815 2.034-2.813 3.417-5.872 2.807-1.182-.204-2.283-1.058-2.487-2.97-.204-1.464-.081-2.968-.081-4.433 2.324.773 4.444.53 6.605.244-2.446-.04-4.893-.447-7.34-1.708.041-1.139.041-1.627.123-2.969.04-.244.693-.57 1.142-.488 0-.935-.041-1.749.244-3.213.123-.57.694-1.383 1.02-1.79M28.462 266.947c-.57.732-.816 1.14-1.183 1.627-.04 1.912.612 3.742 2.61 4.759 1.468.773 3.303.366 4.567-.366 0 .407.041.895.041 1.301-.693.529-2.773.773-4.322.732 1.753.285 3.629.244 5.382 0 .856-.081 1.387 2.644.245 2.847-2.039.326-3.833.082-5.913.041-.57 0-.897.203-1.06.366.57.081 1.142.203 1.713.244 1.59.122 3.221.163 4.526 0 .204 1.098.285 2.278.57 3.376.205.813.612 1.545.898 2.318-.245.61-1.06 1.342-1.794 1.627-1.428.61-3.303 1.017-5.097.895 1.59.57 3.547.366 5.015-.122.816-.285 1.713-.773 2.12-1.261.164.813-.122 2.196-.693 2.806-.652.651-.693 1.465-1.264 1.627-2.12.651-4.404.976-6.443.488-3.099-.732-4.077-3.7-3.833-4.758.449-1.912 1.428-3.742 1.387-5.735-.04-2.847-1.387-5.613-1.713-8.46-.204-1.87.041-3.66 1.958-4.758 1.06-.61 1.916-.53 2.528-.326-.082.244-.082.488-.245.732M4.037 162.543c-.653 1.993-2.814 2.115-2.855 5.287-.04 5.45 1.265 12.12 1.224 16.31.693-.529 1.345-.854 2.12-.854.775 0 1.754.203 2.12.691-1.386-.203-2.731-.285-3.22.448-.572.813-1.55-.041-2.04 1.464C.98 187.312 0 187.353 0 188.654c.081.773 0 2.034.081 2.807.123.976 1.632 1.464 2.896 1.83.57.203 1.223-.04 1.345-.65.775 0 1.468-.163 1.713-.692-1.02-.976-2.039-1.83-2.161-2.44-.123-.733-.245-1.668-.367-2.4.367.65.448 1.586.734 2.278.285.65 1.55 1.586 2.324 2.155.285.244 1.142-.163 1.02-.61-.368-.935-.816-1.749-1.183-2.725-.122-.65-.204-1.423-.367-2.115.734-.691 1.427-.65 2.243-.366-.734.04-1.264.285-1.428.773.123.773.367 1.627.49 2.4.408 1.016 1.305 1.545 2.242 1.138-.203-.65-.407-1.22-.326-1.83.082-.773.571-1.342.449-2.115-.163-.732-1.224-1.342-1.142-1.993.082-1.098.163-2.155.204-3.254.122-3.457 1.02-6.426.979-9.964 0-.692-.367-1.668-.041-2.318-2.488-1.14-4.037-3.498-5.668-6.02M69.932 164.333c-1.468-.61-3.996.244-5.994 1.708-2.57-.081-5.016-.61-6.77-2.4-1.222-1.26-2.16-2.725-3.261-4.067-.367-.407-.775-.773-1.224-.895-1.957-.528-3.955-.895-6.075-1.017-.693-.04-1.305.326-1.468.855-.449 1.18-.653 2.318-.857 3.497-.163.814.367 1.22 1.183 1.424.285-1.139.449-2.278.815-3.335.204-.692.694-.814 1.265-.814.937 0 1.712.244 2.487.448-.693-.04-1.468.04-2.243.162-.367.041-.775.163-.938.692-.448 1.139-.734 2.318-1.019 3.498-.163.691.448 1.83 1.264 1.749 0 .69.367 1.464 1.264 1.342.082.57.49.935.979 1.22.815.57 1.998 1.423 3.058 1.057.856-.284 1.183.773 2.12 1.098.938.326 2.896.773 4.282.407-.53.407-1.346.448-1.957.529 3.588 1.26 5.708 3.376 8.767 4.311 1.916.61 4.567.163 5.3-1.586.938-2.156 2.692-3.62.45-7.036-.572-.854-.939-1.871-1.428-2.847M118.334 17.182c6.32-1.464 4.73 6.426 5.627 11.388.082-2.115-.04-4.31-.082-6.385 0-1.952-.366-4.067-1.794-5.328-.978-.814-2.732-.732-3.751.325m-13.008-2.521c-2.283.894-4.526 2.48-5.056 5.734-.449 2.522.57 5.084.081 7.362-.611 1.464-.815 2.033-1.59 2.521-.448.082-1.386.326-1.794.733-.571-5.206-1.305-10.209 1.305-15.049 3.874-7.32 12.11-9.476 17.452-7.32 5.831-.245 9.705 5.124 10.154 12.12.244 3.294.081 6.019-.694 8.866-.53.284-.815 1.26-.978 1.952.367-.57.693-1.098 1.345-1.383.449-.203.897.61.694 1.993-.286 1.79-.98 3.01-1.51 4.677-.448 1.383-1.508 2.156-1.997 1.302-.857 3.213-1.958 7.89-4.975 9.924-4.363 2.928-8.196 2.359-11.58.366-2.651-1.546-4.975-5.49-6.688-10.128-.122.57-1.142.692-1.305.285-.652-1.586-1.427-3.01-1.712-5.246-.204-1.79.897-3.336 2.365-2.319 1.55-1.342 2.813-2.725 2.365-5.41-.897-5.774-.123-8.54 4.118-10.98"/><path d="M96.192 33.817c-.04 2.36.693 5.165 1.958 6.223.285.203.897.203 1.06-.04.611 1.463 1.305 2.968 2.242 4.351-.53 2.237-2.242 3.945-4.281 5.369-2.324 1.586-5.097 1.952-8.033 2.603-1.631.366-3.344 1.464-4.445 2.847.204-1.342 1.55-3.05 2.936-3.986 2.161-1.505 5.546-2.237 6.157-3.62-1.957 1.18-4.689 1.424-8.889 3.417-2.773 1.342-6.32 5.612-6.85 8.785-.082-3.05.652-6.223 5.464-9.762-1.02.489-1.998.651-2.977.448 3.466-.529 6.32-2.929 8.645-6.06a7.502 7.502 0 0 0 .978-1.627c-2.038 2.48-3.996 3.62-5.954 3.782 2.08-1.18 3.222-2.521 3.793-4.31.49-1.465-.122-3.458 1.794-5.898-3.751.162-3.996 5.328-6.769 7.524 2.202-3.091.123-6.426 4.241-10.29 1.876-1.749 8.237-4.23 10.928-4.067-.815.57-2.038 3.335-1.998 4.311M102.472 46.06c.448.528.856.975 1.305 1.423.163.162 1.957 6.873 2.976 7.687.164.122-2.16-6.996-1.998-6.833 6.525 5.287 13.987 2.155 16.311-5.328-.204 6.263.163 8.419 1.713 13.015.938 3.742-.938 8.704-4.812 11.388.04-1.017.285-2.074.163-3.091-.367 1.017-.53 2.237-.856 3.254-1.224.935-2.61 1.098-3.792.976-1.387-1.383-2.773-3.905-4.16-6.345.857 2.034 1.795 4.962 3.14 6.63-3.058-.041-7.013-3.254-8.848-5.776-2.202-3.05-4.078-6.345-4.119-9.476.816-.407 1.754-1.14 2.202-1.871.204.447.163.854.326 1.545.327-2.277.49-4.921.449-7.199"/><path d="M92.726 118.821c5.464-1.952 11.336-6.548 17.045-8.785.815.529 2.202.203 2.977-.081 1.957-.773 4.403-3.457 6.28-4.474.162 1.017 3.424 1.057 4.933.366 1.998-.895 1.55-1.75 3.018-3.417.57-.65.326-1.87-.123-2.603.857-.65.979-2.074.367-2.725.653-1.138.775-1.667.163-2.44.734-.773.816-1.545.327-2.48-.571-1.058-1.142-1.465-1.917-1.587-2.161-.326-4.322-.895-6.524-1.139-1.101-.122-2.08 0-2.691 1.098-1.795 3.254-4.404 5.938-8.4 7.606-.286.163-.53.529-.816.813-5.22 2.481-10.52 4.88-16.963 5.532a68.116 68.116 0 0 1-2.854-8.379c1.223-1.993 1.427-4.23 1.427-6.507 1.835 4.596 3.751 7.687 7.136 7.93-2.977-1.3-5.22-4.717-6.647-10.29 2.406-2.846 5.22-7.157 5.505-14.275.204-5.49-1.02-11.144-3.466-15.211a575.679 575.679 0 0 0 6.524-4.108c1.183 5.206 3.71 10.534 7.748 13.3 5.668 3.985 9.582 3.172 13.415.447 2.365-1.627 3.18-4.311 3.262-7.565.612-2.156.775-4.637-.203-8.175a61.91 61.91 0 0 1 8.155 3.254c.081.162.163.366.245.57 2.528 1.22 5.341 2.48 7.584 4.188 4.282 3.213 5.831 9.273 4.73 13.3-.693 2.644-3.099 4.393-5.505 6.1-1.468-4.107-.897-13.584-6.157-20.62 4.934 8.42 3.67 18.343 5.22 20.377.896 4.026 1.304 7.809 1.019 11.795-.163 2.725-2.691 6.1-6.035 7.361 1.712-.122 3.792-.854 4.934-2.4-1.387 5.654-2.855 11.917-3.589 17.611-.122.814.082 2.278-.448 2.522-2.039.976-4.77 1.912-7.258 2.603 2.65-.203 5.178-1.139 7.054-1.749-.122 1.79-.408 3.58-.408 5.369 0 1.627.734 2.806 1.183 4.148.326.976.367 1.993-.53 2.97-3.018 3.416-8.93 6.303-16.23 7.036-5.137.528-10.357-.041-15.29-1.22-3.222-.814-8.93-2.766-9.991-5.288.082-1.911 1.183-3.335 1.672-5.003.448-1.464.367-3.09.53-4.636 4.69.407 9.909.854 15.373.529 3.425-.204 6.85-.854 10.235-1.261-3.67.162-7.38.447-11.092.529-5.26.08-10.275-.448-14.924-.936"/><path d="M90.32 130.534c7.626 7.484 20.837 6.996 30.746 5.003 5.097-1.057 10.235-3.864 12.926-6.792 2.324 2.847 3.589 5.775 4.649 9.192 1.386 4.799 2.446 9.842 2.365 14.6-.082 5.858-1.224 10.372-2.528 15.578 1.019-2.4 1.753-4.921 2.324-7.32.326 4.066.081 10.777-1.142 15.861-1.59 6.508-4.69 14.683-6.646 20.62-.734-3.375-1.958-5.612-1.876 3.499 0 1.83.49 3.985.408 5.775-.204 3.742-1.59 6.263-.857 9.598 0-3.09 1.06-4.31 1.305-6.588-.04 8.337 3.018 10.452 2.161 28.144-.53 10.82-5.097 20.702-3.466 33.677.245 1.952 1.346 3.01 1.794 5.572-1.141.935-2.202 1.017-2.528 0-.978-2.888-4.444-2.075-5.097.528-.326 1.343-1.794.977-3.058.977-.04-2.685.897-4.84 1.02-7.321.652-12.771-4.445-23.875-5.302-35.995-.367-4.84 1.142-11.225 1.224-16.675.57.284 1.427.488 2.039.65 1.712.407 4.485.773 7.502-.203 1.55 10.982.449 20.702-.122 30.748.612-6.467 1.754-12.852 1.835-19.32 0-3.904-.367-7.808-.897-11.672a15.121 15.121 0 0 0 3.303-1.87l-3.588-.163c-.123-.651-.204-1.343-.327-2.034-.081-.61-.407-1.017-.978-.813-1.794.61-3.833.854-6.525-.773 2.447 2.44 3.059 2.928 6.729 2.4l.244 1.22-8.767-.326-.448.773a33.826 33.826 0 0 0-.204-2.115c-.571-3.823-1.101-5.125-1.55-8.948-.244-2.115 0-4.23 0-6.345-1.182-5.002-.489-9.883.53-14.682 1.305-5.206 2.57-10.412 3.303-16.228-1.141 6.182-3.303 11.673-4.281 17.041-1.59-8.378-2.488-16.553-2.08-24.362 3.303-2.766 6.443-6.345 9.379-11.673 2.446-4.392 6.076-7.809 9.664-11.103-3.752 2.4-7.748 6.182-10.928 11.347-3.18 5.247-5.75 8.541-9.012 10.534-1.182.326-2.732.122-3.955.122-1.917-2.4-3.793-5.124-5.913-6.589-1.753-1.301-3.14-2.928-4.73-4.067-2.61-1.83-5.342-3.213-8.155-4.758-1.917-1.099-3.67-2.319-4.567-4.108.652-3.498 1.957-6.914 4.077-10.616M138.029 80.102c1.957-1.587 3.71-3.458 4.608-4.8.978 5.41 1.141 12.08.774 17.815-.04.813-.163 2.033.123 2.887a7.17 7.17 0 0 0-2.406 1.546c-1.305 1.342-1.468 2.44-3.262 3.782 2.039-.895 2.283-2.359 3.833-3.457.693-.488 1.672-.976 2.528-1.139 2.977 3.986 4.322 8.094 7.584 11.714.734.813 1.835 1.18 2.733 1.749-1.632.122-2.61.894-3.507 1.749 1.141-.733 2.65-1.343 4.934-1.261.897 0 2.487.406 3.384.122 1.02.04.571 1.301.082 1.749-1.06.894-2.12.244-3.222 1.301-1.06.081-2.038-.122-3.099.122-1.1.285-1.468 1.302-.693 2.481-.979.407-.122 2.684.938 2.766-.612.488-.49 1.301.367 2.521-1.06-.691-2.08-1.057-2.936-1.952-1.59-1.749-1.386-4.392-1.223-5.979-.367 1.017-.816 2.034-.449 3.498-1.794-1.423-3.343-3.213-5.382-4.27-3.18-1.627-5.872-3.58-8.4-6.63.489-3.986 1.264-7.768 2.691-11.591.815-2.197.897-5.206.612-8.379-.163-2.115-.408-4.23-.612-6.344"/><path d="M153.443 114.591c-1.101.325-.571 1.668.081 1.952-.774.692-.326 2.36 1.101 2.522-1.142.732-.775 1.79.326 2.074-.693.448-.244 1.18.245 1.546.693.57 1.142.57 1.998.854.49.163 1.183.325 1.957.04 1.51-.528 2.243-.732 3.507-1.748.693-.53.897-1.627.204-2.197.53-1.098.163-1.627-.204-2.196.571-.773.979-1.667-.326-2.806 0-.936-.285-1.83-2.08-2.481.041.732-.367 1.017-1.1 1.301-.816.326-1.795.529-2.61.895-1.06-.04-2.08-.04-3.1.244M86.243 141.15c1.671 1.83 4.403 1.627 6.89 2.359 4.568.935 11.092 6.995 11.704 11.55-1.264-1.708-1.794-.447-1.02.163 2.243 1.79 3.996 3.905 5.627 6.1.367 5.451.653 10.779.53 16.229-.081 3.091-.163 6.06-.733 9.07a143.706 143.706 0 0 1-1.795-4.433c2.12 9.313 2.447 14.275 1.917 20.295-.163 2.155-1.957 4.311-2.732 6.345-1.713 1.992-4.69 1.83-6.891 1.057-1.59-.57-4.894-2.562-5.097-6.955-.041 3.01 1.223 5.206 2.976 6.589 1.672 1.301 4.73 1.83 6.443 1.586-1.631 1.912-5.709 4.8-7.625 6.914-1.346 1.505-2.814 1.14-3.874.366-3.058-2.277-3.221-7.198-2.773-12.567.286-3.254 1.794-7.2 3.955-9.03 1.06 1.506 1.387 3.54 2.243 5.288-1.142-5.938-3.466-11.754-4.975-17.774-1.835-7.361-3.506-12.974-4.852-20.457-1.183-6.63-1.55-15.537.082-22.695M121.23 278.946c-.898.65-1.061 1.545-1.061 3.457 0 1.87-.04 3.376-.693 5.084-.857 2.277-1.101 3.7-.612 4.799.693-.691 1.713-1.464 2.977-2.278.57-1.18-1.59-2.196-1.346-3.741.163-1.22 2.814-2.481 6.524-3.702.123-.854.367-1.708 1.305-2.196-1.508.04-3.629.448-5.138 1.18 1.428-.895 2.733-1.587 4.445-1.912 2.243-.366 4.445.081 5.587.57-.49-.855-.286-1.79-.286-2.604-.04-.813-.326-.976-.612-1.016-.652.366-1.304.772-1.957 1.18a42.103 42.103 0 0 0-1.264-1.546c-.57-.651-2.161-.692-2.977.122-.57.61-.652 1.423-1.019 2.277-.245.61-3.955.936-3.874.326"/><path d="M134.033 281.101c-1.386-.529-2.732-.813-4.812-.65-.815.203-1.223 1.179-1.264 2.44-2.732 1.017-5.627 1.667-6.606 2.847-.937 1.139 1.55 2.847 1.183 3.904-.408 1.18-2.773 2.075-3.792 3.295v1.505c.734.894 2.691 1.423 6.402 1.545 3.547.122 5.178-.65 5.75-1.098 1.1-.773 1.386-2.562.652-2.97-1.387-.04-2.447.326-3.507.57.775-.61 2.446-1.139 4.608-1.911 1.916-.692 3.262-2.847 3.466-3.66.285-1.22-.245-2.604-1.672-3.417a4.43 4.43 0 0 0-1.917-.61c.082-.407-.04-.936-.367-1.586.367.244.693.61.938 1.016.571.122 1.142.57 1.713.895.081-.407-.612-1.627-.775-2.115M89.872 231.888c.856-2.806 2.773-4.84 4.77-6.914.082-.976-1.508-1.586-3.017-2.237 1.509.244 3.018.61 4.486 1.871-.816.732-1.917 1.912-2.732 2.684 1.671.244 3.22 1.099 4.403 2.563-1.549-.895-3.14-1.546-4.893-1.75-1.182.977-1.835 2.197-1.835 3.702.449 2.156 1.672 4.148 3.303 6.141.571-.894 1.101-.894 1.672-.772-.775.203-1.427.894-1.876 2.115-2.202-2.44-3.751-4.922-4.281-7.403m-.938-20.864c-2.202.732-3.14 2.155-3.058 4.026.285 2.4.978 3.417 1.141 5.247.245 3.294.49 5.897.449 9.192 0 1.911-.163 4.718.49 5.856 1.712 3.091 3.465 5.044 6.32 6.915 1.753 1.138 4.73-.244 5.138-1.18.937-3.579 1.141-8.012.407-10.33-.611-1.953-1.794-3.783-2.12-5.817-.367-2.359.081-4.758.122-7.158.245-1.79-.652-1.057-1.305-.854-.163 2.36-2.976 3.295-4.77 1.668-1.835-1.627-2.855-4.678-2.814-7.565M90.606 58.383c2.976 6.345 3.588 12.77 2.446 19.115-.652 3.458-1.835 5.776-4.077 8.786-.734 1.016-2.284 2.318-3.303 3.05.734-.366 1.508-.732 2.242-1.139-.856 6.182-4.159 11.348-6.565 16.757-1.182.081-2.732.04-3.751.61-2.039 1.098-3.18 2.48-4.934 4.026 1.835-1.22 3.14-2.318 5.22-3.05 1.386-.447 4.118-.691 6.768-.447 3.833.284 14.394-1.587 23.325-5.898.367-.772.815-1.139 1.386-1.423 3.63-1.79 6.116-3.945 7.788-6.752.653-1.139 1.631-1.83 2.732-1.545 2.04.528 3.466.57 5.587.976.448.081 1.1.285 1.142.976 0 .773-.571 1.423-.857 2.115-1.223-.854-2.61-1.058-3.955-1.26 1.631.568 2.691 1.097 3.996 2.114.449.366.57 1.017-.449 2.115 1.101.813.49 1.749-.081 2.44.652.61.53 1.342-.163 2.237-1.101 1.424-.979 2.278-1.917 2.481-1.182.326-3.18.65-3.873-.122.856-.773.693-.732 1.264-1.667.53-.407 1.957-.204 1.875.61.897-1.18-.978-1.709-1.672-1.668-.937.082-1.794 3.173-3.67 3.945-2.772 1.098-4.974 2.97-6.197 2.766-.857-.163-1.265-1.952-1.835-5.531 0 1.627.04 3.375.448 5.612-8.604 3.864-14.843 7.606-23.773 10.656-4.24 1.465-10.072 1.261-14.353 2.685-1.957.65-3.752.854-5.097-.366-1.509-1.383-3.018-2.97-2.691-5.532.367-2.765 1.59-6.141 2.12-10.86.897-7.767 3.466-15.17 7.83-21.352.203 1.505.692 2.725 1.263 3.823-.163-6.466-.285-13.462 3.018-19.44 2.69-4.84 7.136-7.647 12.763-9.843M119.068 217.531c2.161 1.139 6.32 1.668 10.235.692 1.508-.366 3.343-1.017 3.507-1.993.244-1.14-.327-2.766-.49-2.847-.53 1.057-.815 2.318-1.345 3.375-.612-.65-1.224-1.342-1.835-1.992.734-2.4 2.038-4.678 2.202-7.2.122-2.643 1.182-4.514.856-5.815-.286-1.302-.53-3.173-.367-4.759.081 1.912.285 2.847.897 3.457 6.402-22.776 9.583-32.781 7.503-54.988a780.156 780.156 0 0 0-5.587 2.318c.53-3.498 1.101-7.036 1.672-10.575-4.485 1.017-8.97 2.075-13.456 3.132.082 2.807-1.183 4.311-1.1 7.077-1.714 4.88-3.916 10.819-6.974 13.747 3.303 2.238 8.319 5.043 11.622 7.28-1.468 9.68-2.977 19.36-4.486 29.04-1.386 1.749-2.732 3.498-4.118 5.247.326 3.457.53 6.792.856 10.249.204.895 1.264 1.545 2.487 1.87-.856.326-1.753.286-2.61-.121-.326 1.545.041 2.562.53 2.806"/></g></svg>